<svg xmlns="http://www.w3.org/2000/svg" version="1.1" xmlns:xlink="http://www.w3.org/1999/xlink" xmlns:svgjs="http://svgjs.dev/svgjs" width="1000" height="1000" viewBox="0 0 1000 1000"><rect width="1000" height="1000" fill="#ffa96a"></rect><g transform="matrix(0.7,0,0,0.7,149.57575757575756,282.1265587044535)"><svg viewBox="0 0 396 247" data-background-color="#ffa96a" preserveAspectRatio="xMidYMid meet" height="623" width="1000" xmlns="http://www.w3.org/2000/svg" xmlns:xlink="http://www.w3.org/1999/xlink"><defs></defs><g id="tight-bounds" transform="matrix(1,0,0,1,0.2400000000000091,-0.09999999999999432)"><svg viewBox="0 0 395.52 247.2" height="247.2" width="395.52"><g><svg></svg></g><g><svg viewBox="0 0 395.52 247.2" height="247.2" width="395.52"><g transform="matrix(1,0,0,1,75.54432,87.41529716012084)"><svg viewBox="0 0 244.43135999999998 72.36940567975832" height="72.36940567975832" width="244.43135999999998"><g><svg viewBox="0 0 244.43135999999998 72.36940567975832" height="72.36940567975832" width="244.43135999999998"><g><svg viewBox="0 0 244.43135999999998 72.36940567975832" height="72.36940567975832" width="244.43135999999998"><g><svg viewBox="0 0 244.43135999999998 72.36940567975832" height="72.36940567975832" width="244.43135999999998"><g><svg viewBox="0 0 244.43135999999998 72.36940567975832" height="72.36940567975832" width="244.43135999999998"><g><svg viewBox="0 0 244.43135999999998 72.36940567975832" height="72.36940567975832" width="244.43135999999998"><g transform="matrix(1,0,0,1,0,0)"><svg width="244.43135999999998" viewBox="0.30000001192092896 -34.29999923706055 115.83999633789062 34.29999923706055" height="72.36940567975832" data-palette-color="#000000"><path d="M0.3 0L13.65-34.3 20.65-34.3 33.95 0 28.05 0 24.9-8.35 9.1-8.35 6 0 0.3 0ZM10.85-13.1L23.1-13.1 19.35-23.15 17.1-29.55 16.85-29.55 16.4-28.25Q15.55-25.65 14.65-23.25L14.65-23.25 10.85-13.1ZM37.95 0L37.95-34.3 55.45-34.3Q58.25-34.3 60.42-33.25 62.6-32.2 63.82-30.28 65.05-28.35 65.05-25.85L65.05-25.85Q65.05-23 63.47-20.9 61.9-18.8 59.35-18L59.35-18 59.35-17.8Q62.35-17.15 64.17-14.93 66-12.7 66-9.25L66-9.25Q66-4.65 63.1-2.33 60.2 0 55.45 0L55.45 0 37.95 0ZM43.5-19.95L54.2-19.95Q56.55-19.95 57.97-21.28 59.4-22.6 59.4-24.75L59.4-24.75Q59.4-27.15 58.1-28.35 56.8-29.55 54.55-29.55L54.55-29.55 43.5-29.55 43.5-19.95ZM43.5-4.75L55.05-4.75Q57.55-4.75 58.95-6 60.35-7.25 60.35-9.9L60.35-9.9Q60.35-12.5 58.9-13.85 57.45-15.2 54.65-15.2L54.65-15.2 43.5-15.2 43.5-4.75ZM72.6 0L72.6-34.3 78.15-34.3 78.15 0 72.6 0ZM86.04 0L86.04-34.3 99.24-34.3Q107.34-34.3 111.74-30.05 116.14-25.8 116.14-17.15L116.14-17.15Q116.14-8.5 111.74-4.25 107.34 0 99.24 0L99.24 0 86.04 0ZM91.59-4.75L99.24-4.75Q104.69-4.75 107.57-7.68 110.44-10.6 110.44-16.85L110.44-16.85 110.44-17.4Q110.44-23.7 107.57-26.63 104.69-29.55 99.24-29.55L99.24-29.55 91.59-29.55 91.59-4.75Z" opacity="1" transform="matrix(1,0,0,1,0,0)" fill="#000000" class="undefined-text-0" data-fill-palette-color="primary" id="text-0"></path></svg></g></svg></g></svg></g></svg></g></svg></g></svg></g></svg></g><g><path d="M244.431 176.869A122.216 122.216 0 1 1 244.431 70.331L237.905 70.331A115.689 115.689 0 1 0 237.905 176.869L244.431 176.869" fill="#000000" stroke="transparent" data-fill-palette-color="tertiary"></path></g></svg></g></svg><rect width="395.52" height="247.2" fill="none" stroke="none" visibility="hidden"></rect></g></svg></g></svg>